<svg width="374" height="58" viewBox="0 0 374 58" fill="none" xmlns="http://www.w3.org/2000/svg">
<path d="M25.0645 18.542V22.0254L9.57324 29.8418L25.0645 37.5166V41L2.60645 29.8418L25.0645 18.542ZM44.5771 35.2227H48.3438V35.4209C48.3438 36.4404 47.9567 37.46 47.1826 38.4795C46.4274 39.4801 45.4362 40.2542 44.209 40.8018C43.0007 41.3493 41.528 41.623 39.791 41.623C36.487 41.623 33.9382 40.5752 32.1445 38.4795C30.3509 36.3838 29.4541 33.4762 29.4541 29.7568C29.4541 26.0563 30.3509 23.1582 32.1445 21.0625C33.9382 18.9668 36.487 17.9189 39.791 17.9189C41.528 17.9189 43.0007 18.1927 44.209 18.7402C45.4362 19.2689 46.4274 20.0146 47.1826 20.9775C47.9567 21.9215 48.3438 22.9694 48.3438 24.1211V24.3193H44.5771V24.1211C44.6149 23.2904 44.2562 22.5729 43.501 21.9688C42.7458 21.3457 41.5752 21.0342 39.9893 21.0342C38.1201 21.0342 36.5436 21.7233 35.2598 23.1016C33.9948 24.4798 33.3623 26.6982 33.3623 29.7568C33.3623 32.8343 33.9948 35.0622 35.2598 36.4404C36.5436 37.8187 38.1201 38.5078 39.9893 38.5078C41.5752 38.5078 42.7363 38.2057 43.4727 37.6016C44.209 36.9785 44.5771 36.2516 44.5771 35.4209V35.2227ZM66.8936 41C66.4971 39.7917 66.2988 38.7533 66.2988 37.8848C64.6562 39.5085 63.2591 40.5374 62.1074 40.9717C60.9557 41.4059 59.8418 41.623 58.7656 41.623C56.9909 41.623 55.4616 41.0755 54.1777 39.9805C52.8939 38.8854 52.252 37.3844 52.252 35.4775C52.252 33.3063 53.1488 31.6354 54.9424 30.4648C56.7549 29.2754 59.8701 28.2464 64.2881 27.3779L66.2988 27.0098V24.4609C66.2988 23.0827 65.8363 22.1198 64.9111 21.5723C63.986 21.0059 62.8721 20.7227 61.5693 20.7227C60.0212 20.7227 58.8034 21.0719 57.916 21.7705C57.0475 22.4502 56.6133 23.2432 56.6133 24.1494V24.4609H52.5635V24.1777C52.5635 23.1771 52.9788 22.1481 53.8096 21.0908C54.6592 20.0335 55.7731 19.2406 57.1514 18.7119C58.5485 18.1644 60.0684 17.8906 61.7109 17.8906C63.3535 17.8906 64.8451 18.1455 66.1855 18.6553C67.526 19.165 68.4984 19.8542 69.1025 20.7227C69.7256 21.5911 70.0371 23.2148 70.0371 25.5938V34.3164C70.0371 35.2793 70.056 36.2894 70.0938 37.3467C70.1504 38.3851 70.3958 39.6029 70.8301 41H66.8936ZM66.2988 29.6719L65.166 29.9268C61.3711 30.8519 58.945 31.7393 57.8877 32.5889C56.8304 33.4196 56.3018 34.4108 56.3018 35.5625C56.3018 36.1478 56.4528 36.6953 56.7549 37.2051C57.0758 37.7148 57.5479 38.1113 58.1709 38.3945C58.7939 38.6777 59.4076 38.8193 60.0117 38.8193C61.0501 38.8193 62.0697 38.5173 63.0703 37.9131C64.0898 37.29 64.8828 36.4688 65.4492 35.4492C66.0156 34.4297 66.2988 33.2402 66.2988 31.8809V29.6719ZM89.5215 37.8281V40.9717C87.709 41.4059 86.3213 41.623 85.3584 41.623C83.9613 41.623 82.6963 41.3398 81.5635 40.7734C80.4495 40.207 79.5999 39.3952 79.0146 38.3379C78.4294 37.2617 78.1367 35.5531 78.1367 33.2119V21.6572H74.2568V18.542H78.1367V13.2178H81.9033V18.542H88.4453V21.6572H81.9033V32.1357C81.9033 34.1182 82.0544 35.4964 82.3564 36.2705C82.6585 37.0446 83.14 37.611 83.8008 37.9697C84.4616 38.3285 85.2546 38.5078 86.1797 38.5078C86.916 38.5078 88.0299 38.2812 89.5215 37.8281ZM107.958 41C107.562 39.7917 107.363 38.7533 107.363 37.8848C105.721 39.5085 104.324 40.5374 103.172 40.9717C102.02 41.4059 100.906 41.623 99.8301 41.623C98.0553 41.623 96.526 41.0755 95.2422 39.9805C93.9583 38.8854 93.3164 37.3844 93.3164 35.4775C93.3164 33.3063 94.2132 31.6354 96.0068 30.4648C97.8193 29.2754 100.935 28.2464 105.353 27.3779L107.363 27.0098V24.4609C107.363 23.0827 106.901 22.1198 105.976 21.5723C105.05 21.0059 103.937 20.7227 102.634 20.7227C101.086 20.7227 99.8678 21.0719 98.9805 21.7705C98.112 22.4502 97.6777 23.2432 97.6777 24.1494V24.4609H93.6279V24.1777C93.6279 23.1771 94.0433 22.1481 94.874 21.0908C95.7236 20.0335 96.8376 19.2406 98.2158 18.7119C99.613 18.1644 101.133 17.8906 102.775 17.8906C104.418 17.8906 105.91 18.1455 107.25 18.6553C108.59 19.165 109.563 19.8542 110.167 20.7227C110.79 21.5911 111.102 23.2148 111.102 25.5938V34.3164C111.102 35.2793 111.12 36.2894 111.158 37.3467C111.215 38.3851 111.46 39.6029 111.895 41H107.958ZM107.363 29.6719L106.23 29.9268C102.436 30.8519 100.009 31.7393 98.9521 32.5889C97.8949 33.4196 97.3662 34.4108 97.3662 35.5625C97.3662 36.1478 97.5173 36.6953 97.8193 37.2051C98.1403 37.7148 98.6123 38.1113 99.2354 38.3945C99.8584 38.6777 100.472 38.8193 101.076 38.8193C102.115 38.8193 103.134 38.5173 104.135 37.9131C105.154 37.29 105.947 36.4688 106.514 35.4492C107.08 34.4297 107.363 33.2402 107.363 31.8809V29.6719ZM130.586 37.8281V40.9717C128.773 41.4059 127.386 41.623 126.423 41.623C125.026 41.623 123.761 41.3398 122.628 40.7734C121.514 40.207 120.664 39.3952 120.079 38.3379C119.494 37.2617 119.201 35.5531 119.201 33.2119V21.6572H115.321V18.542H119.201V13.2178H122.968V18.542H129.51V21.6572H122.968V32.1357C122.968 34.1182 123.119 35.4964 123.421 36.2705C123.723 37.0446 124.204 37.611 124.865 37.9697C125.526 38.3285 126.319 38.5078 127.244 38.5078C127.98 38.5078 129.094 38.2812 130.586 37.8281ZM144.689 41.623C141.744 41.623 139.233 40.6318 137.156 38.6494C135.098 36.6481 134.069 33.6839 134.069 29.7568C134.069 25.8486 135.098 22.9033 137.156 20.9209C139.233 18.9196 141.744 17.9189 144.689 17.9189C147.616 17.9189 150.108 18.9196 152.166 20.9209C154.243 22.9033 155.281 25.8486 155.281 29.7568C155.281 33.6839 154.243 36.6481 152.166 38.6494C150.108 40.6318 147.616 41.623 144.689 41.623ZM144.689 38.5078C146.691 38.5078 148.305 37.7054 149.532 36.1006C150.759 34.4958 151.373 32.3812 151.373 29.7568C151.373 27.1514 150.759 25.0462 149.532 23.4414C148.305 21.8366 146.691 21.0342 144.689 21.0342C142.669 21.0342 141.046 21.8366 139.818 23.4414C138.591 25.0462 137.978 27.1514 137.978 29.7568C137.978 32.3812 138.591 34.4958 139.818 36.1006C141.046 37.7054 142.669 38.5078 144.689 38.5078ZM158.736 29.9268V26.8115H171.226V29.9268H158.736ZM174.369 35.0811H178.107V35.1377C178.107 36.1195 178.476 36.9313 179.212 37.5732C179.967 38.1963 181.223 38.5078 182.979 38.5078C184.508 38.5078 185.754 38.1302 186.717 37.375C187.68 36.6198 188.161 35.7324 188.161 34.7129C188.161 33.3346 187.217 32.3623 185.329 31.7959L183.432 31.2012L182.157 30.8047L179.58 30.0117C176.616 28.9167 175.134 27.1136 175.134 24.6025C175.134 22.8278 175.851 21.2702 177.286 19.9297C178.721 18.5892 180.845 17.9189 183.658 17.9189C186.452 17.9189 188.435 18.4948 189.605 19.6465C190.795 20.7793 191.39 22.0443 191.39 23.4414V23.5264H187.623V23.4414C187.623 22.6862 187.245 22.1009 186.49 21.6855C185.735 21.2513 184.725 21.0342 183.46 21.0342C181.968 21.0342 180.817 21.3457 180.005 21.9688C179.212 22.5918 178.815 23.3564 178.815 24.2627C178.815 24.9613 179.07 25.5277 179.58 25.9619C180.109 26.3962 180.987 26.7926 182.214 27.1514L183.998 27.6611L185.329 28.0293C187.142 28.5579 188.274 28.9261 188.728 29.1338C189.181 29.3415 189.634 29.6152 190.087 29.9551C190.71 30.446 191.173 31.0312 191.475 31.7109C191.777 32.3906 191.928 33.1836 191.928 34.0898C191.928 36.2233 191.163 38.0169 189.634 39.4707C188.123 40.9056 185.905 41.623 182.979 41.623C181.128 41.623 179.59 41.3493 178.362 40.8018C177.154 40.2542 176.182 39.499 175.445 38.5361C174.728 37.5544 174.369 36.4215 174.369 35.1377V35.0811ZM206.314 41.623C203.369 41.623 200.858 40.6318 198.781 38.6494C196.723 36.6481 195.694 33.6839 195.694 29.7568C195.694 25.8486 196.723 22.9033 198.781 20.9209C200.858 18.9196 203.369 17.9189 206.314 17.9189C209.241 17.9189 211.733 18.9196 213.791 20.9209C215.868 22.9033 216.906 25.8486 216.906 29.7568C216.906 33.6839 215.868 36.6481 213.791 38.6494C211.733 40.6318 209.241 41.623 206.314 41.623ZM206.314 38.5078C208.316 38.5078 209.93 37.7054 211.157 36.1006C212.384 34.4958 212.998 32.3812 212.998 29.7568C212.998 27.1514 212.384 25.0462 211.157 23.4414C209.93 21.8366 208.316 21.0342 206.314 21.0342C204.294 21.0342 202.671 21.8366 201.443 23.4414C200.216 25.0462 199.603 27.1514 199.603 29.7568C199.603 32.3812 200.216 34.4958 201.443 36.1006C202.671 37.7054 204.294 38.5078 206.314 38.5078ZM236.107 18.542H239.846V41H236.107V37.0918C235.333 38.2812 234.569 39.1781 233.813 39.7822C233.077 40.3864 232.312 40.8395 231.52 41.1416C230.727 41.4626 229.858 41.623 228.914 41.623C226.837 41.623 225.072 41.0378 223.618 39.8672C222.183 38.6966 221.466 36.3366 221.466 32.7871V18.542H225.204V31.2012C225.204 34.4863 225.638 36.4782 226.507 37.1768C227.375 37.8564 228.451 38.1963 229.735 38.1963C230.849 38.1963 231.897 37.8753 232.879 37.2334C233.88 36.5726 234.663 35.6569 235.229 34.4863C235.815 33.2969 236.107 31.6637 236.107 29.5869V18.542ZM249.503 41H245.765V18.542H249.503V22.5068C250.126 21.3551 250.796 20.4678 251.514 19.8447C252.25 19.2217 253.034 18.7497 253.864 18.4287C254.695 18.0889 255.535 17.9189 256.385 17.9189C257.159 17.9189 257.829 18.0322 258.396 18.2588V22.1387C257.508 21.7044 256.574 21.4873 255.592 21.4873C254.176 21.4873 252.807 22.1104 251.485 23.3564C250.164 24.5837 249.503 26.7643 249.503 29.8984V41ZM275.728 35.2227H279.494V35.4209C279.494 36.4404 279.107 37.46 278.333 38.4795C277.578 39.4801 276.587 40.2542 275.359 40.8018C274.151 41.3493 272.678 41.623 270.941 41.623C267.637 41.623 265.089 40.5752 263.295 38.4795C261.501 36.3838 260.604 33.4762 260.604 29.7568C260.604 26.0563 261.501 23.1582 263.295 21.0625C265.089 18.9668 267.637 17.9189 270.941 17.9189C272.678 17.9189 274.151 18.1927 275.359 18.7402C276.587 19.2689 277.578 20.0146 278.333 20.9775C279.107 21.9215 279.494 22.9694 279.494 24.1211V24.3193H275.728V24.1211C275.765 23.2904 275.407 22.5729 274.651 21.9688C273.896 21.3457 272.726 21.0342 271.14 21.0342C269.271 21.0342 267.694 21.7233 266.41 23.1016C265.145 24.4798 264.513 26.6982 264.513 29.7568C264.513 32.8343 265.145 35.0622 266.41 36.4404C267.694 37.8187 269.271 38.5078 271.14 38.5078C272.726 38.5078 273.887 38.2057 274.623 37.6016C275.359 36.9785 275.728 36.2516 275.728 35.4209V35.2227ZM298.865 35.2227H302.604V35.4209C302.604 36.4215 302.207 37.4411 301.414 38.4795C300.621 39.499 299.573 40.2826 298.271 40.8301C296.968 41.3587 295.476 41.623 293.796 41.623C290.379 41.623 287.735 40.5186 285.866 38.3096C284.016 36.1006 283.091 33.3063 283.091 29.9268C283.091 26.4717 284.073 23.6113 286.036 21.3457C288 19.0612 290.53 17.9189 293.626 17.9189C295.325 17.9189 296.864 18.2871 298.242 19.0234C299.639 19.7598 300.734 20.9115 301.527 22.4785C302.339 24.0267 302.745 26.1979 302.745 28.9922V30.2383H286.801C286.801 32.6361 287.443 34.6185 288.727 36.1855C290.029 37.7337 291.823 38.5078 294.107 38.5078C295.75 38.5078 296.949 38.1963 297.704 37.5732C298.478 36.9313 298.865 36.2139 298.865 35.4209V35.2227ZM287.027 27.4346H299.148V26.9814C299.148 25.943 298.894 24.9329 298.384 23.9512C297.893 22.9505 297.204 22.2142 296.316 21.7422C295.429 21.2702 294.4 21.0342 293.229 21.0342C291.832 21.0342 290.539 21.6006 289.35 22.7334C288.179 23.8473 287.405 25.4144 287.027 27.4346ZM348.907 41V37.4316L364.398 29.5869L348.907 21.9121V18.542L371.365 29.5869L348.907 41Z" fill="#E5E5E5"/>
<path d="M328.8 41.9346H325.203L341.997 8.85645H345.48L328.8 41.9346Z" fill="#ED6363"/>
</svg>
