<svg width="41" height="41" viewBox="0 0 41 41" fill="none" xmlns="http://www.w3.org/2000/svg">
<path d="M27.3334 37.5833V30.9721C27.3974 30.1575 27.2874 29.3386 27.0105 28.5698C26.7336 27.801 26.2963 27.1 25.7275 26.5133C31.0917 25.9154 36.7292 23.8825 36.7292 14.555C36.7287 12.1699 35.8113 9.87621 34.1667 8.14875C34.9454 6.06203 34.8904 3.75551 34.0129 1.70833C34.0129 1.70833 31.9971 1.11042 27.3334 4.23667C23.4179 3.17549 19.2905 3.17549 15.375 4.23667C10.7113 1.11042 8.69544 1.70833 8.69544 1.70833C7.818 3.75551 7.76293 6.06203 8.54169 8.14875C6.88482 9.88903 5.96641 12.2034 5.97919 14.6063C5.97919 23.8654 11.6167 25.8983 16.9809 26.5646C16.4188 27.1454 15.9853 27.838 15.7087 28.5974C15.432 29.3567 15.3183 30.1659 15.375 30.9721V37.5833M15.375 32.4583C6.83335 35.0208 6.83335 28.1875 3.41669 27.3333L15.375 32.4583Z" stroke="#E5E5E5" stroke-width="2" stroke-linecap="round" stroke-linejoin="round"/>
</svg>
