<svg width="41" height="41" viewBox="0 0 41 41" fill="none" xmlns="http://www.w3.org/2000/svg">
<path d="M27.3333 13.6667C30.0518 13.6667 32.6589 14.7466 34.5812 16.6688C36.5034 18.5911 37.5833 21.1982 37.5833 23.9167V35.875H30.75V23.9167C30.75 23.0105 30.39 22.1415 29.7493 21.5007C29.1085 20.86 28.2395 20.5 27.3333 20.5C26.4272 20.5 25.5581 20.86 24.9174 21.5007C24.2766 22.1415 23.9167 23.0105 23.9167 23.9167V35.875H17.0833V23.9167C17.0833 21.1982 18.1633 18.5911 20.0855 16.6688C22.0077 14.7466 24.6149 13.6667 27.3333 13.6667V13.6667Z" stroke="#E5E5E5" stroke-width="2" stroke-linecap="round" stroke-linejoin="round"/>
<path d="M10.25 15.375H3.41666V35.875H10.25V15.375Z" stroke="#E5E5E5" stroke-width="2" stroke-linecap="round" stroke-linejoin="round"/>
<path d="M6.83332 10.25C8.7203 10.25 10.25 8.72031 10.25 6.83333C10.25 4.94636 8.7203 3.41667 6.83332 3.41667C4.94635 3.41667 3.41666 4.94636 3.41666 6.83333C3.41666 8.72031 4.94635 10.25 6.83332 10.25Z" stroke="#E5E5E5" stroke-width="2" stroke-linecap="round" stroke-linejoin="round"/>
</svg>
