<svg width="41" height="41" viewBox="0 0 41 41" fill="none" xmlns="http://www.w3.org/2000/svg">
<path d="M39.2917 5.125C37.6557 6.27894 35.8444 7.16152 33.9275 7.73875C32.8986 6.55575 31.5313 5.71727 30.0104 5.33671C28.4894 4.95615 26.8883 5.05188 25.4236 5.61094C23.9588 6.17001 22.7011 7.16544 21.8205 8.4626C20.9399 9.75976 20.479 11.2961 20.5 12.8638V14.5721C17.4978 14.6499 14.523 13.9841 11.8405 12.6339C9.15795 11.2837 6.85097 9.291 5.12501 6.83333C5.12501 6.83333 -1.70832 22.2083 13.6667 29.0417C10.1484 31.4299 5.95724 32.6273 1.70834 32.4583C17.0833 41 35.875 32.4583 35.875 12.8125C35.8734 12.3367 35.8277 11.862 35.7383 11.3946C37.4819 9.67514 38.7123 7.50422 39.2917 5.125V5.125Z" stroke="#E5E5E5" stroke-width="2" stroke-linecap="round" stroke-linejoin="round"/>
</svg>
