<?xml version="1.0" standalone="no"?>
<!DOCTYPE svg PUBLIC "-//W3C//DTD SVG 20010904//EN"
 "http://www.w3.org/TR/2001/REC-SVG-20010904/DTD/svg10.dtd">
<svg version="1.0" xmlns="http://www.w3.org/2000/svg"
 width="512.000000pt" height="512.000000pt" viewBox="0 0 512.000000 512.000000"
 preserveAspectRatio="xMidYMid meet">
<metadata>
Created by potrace 1.11, written by Peter Selinger 2001-2013
</metadata>
<g transform="translate(0.000000,512.000000) scale(0.100000,-0.100000)"
fill="#000000" stroke="none">
<path d="M140 3250 c0 -1013 2 -1200 14 -1200 7 0 19 -7 26 -15 7 -8 16 -13
20 -10 5 3 10 2 12 -2 3 -8 37 -28 111 -66 20 -10 37 -24 37 -30 0 -6 3 -8 6
-4 3 3 24 -5 45 -19 21 -13 43 -24 49 -24 5 0 10 -5 10 -10 0 -6 3 -9 8 -8 4
1 26 -10 49 -25 24 -15 47 -27 52 -27 5 0 11 -3 13 -7 2 -5 19 -16 38 -26 46
-23 94 -51 100 -57 3 -3 26 -17 53 -30 26 -14 47 -28 47 -32 0 -5 6 -8 14 -8
7 0 29 -11 49 -24 19 -13 38 -22 41 -18 3 3 6 0 6 -6 0 -7 6 -12 13 -12 7 0
29 -12 48 -26 l34 -25 -30 7 c-16 4 -32 10 -35 13 -3 4 -12 6 -20 6 -8 0 -18
4 -22 10 -5 6 -8 5 -8 -3 0 -10 -7 -9 -30 3 -16 8 -40 15 -55 15 -14 0 -25 6
-25 13 0 8 -4 7 -10 -3 -5 -8 -10 -10 -10 -4 0 6 -6 11 -12 12 -7 0 -24 3 -38
7 -51 12 -96 15 -80 5 8 -5 15 -15 15 -22 0 -7 6 -14 13 -14 6 -1 14 -3 17 -4
3 -1 8 -3 13 -4 4 -1 13 -5 21 -10 11 -7 12 -6 6 5 -5 8 2 5 15 -6 14 -12 20
-14 15 -5 -7 12 -6 13 6 4 19 -15 72 -28 65 -16 -3 6 10 2 30 -8 20 -11 42
-16 50 -13 8 3 14 0 14 -7 0 -6 4 -8 10 -5 5 3 24 -1 41 -10 18 -10 28 -12 24
-5 -6 9 -2 9 12 1 11 -5 31 -12 44 -15 57 -12 69 -15 86 -24 10 -6 20 -9 23
-9 3 1 34 -14 69 -33 34 -19 78 -43 97 -53 19 -9 34 -22 34 -27 0 -6 7 -10 15
-10 16 0 65 -28 76 -43 3 -5 10 -9 15 -10 27 -3 64 -23 64 -35 0 -8 6 -12 15
-8 8 3 15 1 15 -4 0 -6 6 -10 14 -10 8 0 22 -8 33 -17 10 -10 14 -16 8 -12 -5
3 -44 4 -85 4 -44 -1 -78 3 -82 9 -5 7 -8 6 -8 -3 0 -11 -3 -11 -17 0 -9 8
-14 9 -10 3 9 -15 -94 -16 -112 -1 -11 9 -13 9 -8 0 9 -14 -31 -15 -50 -1 -6
5 -14 5 -17 0 -7 -12 -166 -9 -186 3 -13 8 -13 6 0 -10 12 -15 12 -17 1 -10
-21 12 -233 13 -250 1 -11 -8 -13 -8 -7 2 6 9 1 11 -18 8 -14 -3 -31 -8 -37
-12 -8 -4 -9 -3 -5 4 5 8 -1 12 -16 12 -17 0 -19 -3 -9 -9 11 -7 11 -9 0 -13
-7 -2 -9 -9 -5 -17 5 -7 14 -10 22 -7 8 3 14 1 14 -3 0 -5 9 -7 20 -4 11 3 17
10 14 17 -3 6 2 2 10 -8 9 -11 16 -16 16 -10 0 10 149 10 175 0 8 -3 15 0 15
6 0 7 5 6 15 -2 9 -7 15 -8 15 -2 0 11 18 11 38 -1 7 -5 12 -3 12 4 0 8 4 8
15 -1 12 -10 15 -10 15 0 0 7 7 10 16 6 9 -4 24 -1 32 6 11 9 14 9 9 1 -4 -6
-3 -14 3 -18 5 -3 10 -2 10 2 0 10 91 10 108 -1 7 -4 12 -4 12 1 0 10 183 9
199 -1 6 -4 11 -3 11 2 0 5 16 8 35 8 19 -1 35 -5 35 -10 0 -6 7 -1 16 10 8
10 13 14 10 8 -3 -7 14 -12 51 -13 31 -1 61 -5 67 -9 6 -3 16 -7 23 -8 6 -1
27 -14 46 -28 18 -14 37 -23 40 -19 4 3 7 1 7 -5 0 -7 7 -12 15 -12 19 0 19
-14 0 -30 -12 -10 -15 -10 -15 0 0 9 -7 7 -22 -6 -12 -10 -18 -13 -14 -6 4 6
2 12 -3 12 -6 0 -11 -5 -11 -11 0 -8 -4 -8 -14 0 -11 9 -16 9 -22 0 -5 -8 -3
-10 7 -4 8 5 11 4 6 -1 -11 -12 -40 -11 -49 1 -4 6 -8 2 -8 -8 0 -10 -5 -15
-10 -12 -6 4 -18 1 -27 -7 -14 -11 -16 -11 -8 2 8 13 7 13 -8 1 -9 -7 -17 -10
-17 -5 0 5 -5 2 -10 -6 -8 -13 -10 -13 -10 -1 0 11 -4 10 -16 -5 -8 -10 -12
-12 -8 -4 7 13 5 13 -9 1 -14 -11 -17 -11 -17 0 0 10 -2 11 -8 2 -4 -7 -24
-14 -45 -16 -20 -2 -40 -7 -44 -12 -5 -4 -2 -5 6 0 9 5 12 4 8 -2 -4 -6 -18
-8 -32 -5 -14 2 -32 -1 -40 -8 -12 -10 -15 -10 -15 1 0 8 -6 6 -16 -7 -8 -10
-12 -12 -8 -4 5 10 -1 8 -16 -5 -13 -11 -21 -15 -17 -9 3 6 0 11 -8 11 -8 0
-11 -5 -8 -10 4 -6 0 -8 -10 -4 -10 3 -17 3 -17 -2 0 -4 -12 -6 -26 -3 -16 3
-24 1 -21 -4 3 -6 -3 -11 -14 -11 -12 -1 -17 3 -13 10 3 7 -1 4 -10 -7 -8 -10
-20 -15 -26 -11 -7 4 -16 1 -21 -6 -7 -12 -9 -11 -9 1 0 11 -2 12 -8 3 -4 -7
-18 -14 -30 -16 -12 -2 -24 -6 -28 -10 -4 -3 -16 -1 -27 5 -16 8 -19 8 -15 -4
4 -9 -1 -14 -13 -15 -12 -1 -17 3 -13 10 3 7 0 5 -8 -3 -14 -17 -27 -19 -45
-7 -9 6 -11 3 -7 -8 5 -13 1 -15 -26 -10 -20 4 -29 2 -25 -5 3 -6 0 -7 -9 -4
-10 4 -16 1 -16 -7 0 -11 -3 -11 -10 1 -7 11 -10 11 -10 2 0 -7 -4 -11 -9 -8
-9 6 -37 -21 -30 -28 5 -5 38 -9 57 -7 8 1 10 6 6 14 -4 6 3 3 16 -8 13 -11
20 -14 16 -7 -4 6 -4 12 1 13 39 4 70 12 82 22 12 10 13 9 6 -3 -5 -9 1 -7 15
5 14 12 20 14 15 5 -8 -13 -6 -13 8 -1 9 7 26 11 37 8 11 -3 23 -1 26 5 3 5
12 7 20 4 8 -3 14 -2 14 3 0 5 10 8 23 7 14 -1 21 4 19 13 -3 12 0 12 12 1 9
-7 16 -8 16 -2 0 5 10 8 22 4 15 -3 19 -2 14 7 -6 8 -1 10 18 5 14 -3 26 -2
26 3 0 5 10 9 23 8 28 -3 48 5 42 15 -3 5 4 6 16 3 12 -4 25 0 30 8 6 10 9 11
9 1 0 -9 8 -7 27 5 15 10 24 12 20 6 -11 -17 4 -16 29 2 12 8 31 13 43 10 12
-2 25 3 31 13 6 11 10 12 10 4 0 -8 5 -10 13 -5 15 9 36 14 60 14 11 0 15 5
11 12 -5 9 -4 9 6 0 13 -12 43 -6 35 7 -3 4 9 6 25 5 17 -1 33 2 36 7 3 5 14
6 25 3 11 -4 19 -2 19 5 0 6 4 9 9 5 5 -3 13 -1 16 5 5 8 11 8 20 0 9 -8 17
-7 26 3 22 20 58 18 103 -7 23 -13 59 -33 81 -46 22 -12 43 -27 46 -32 3 -5 8
-8 10 -6 2 1 22 -8 44 -21 22 -14 43 -24 48 -23 4 1 7 -3 7 -10 0 -6 3 -9 6
-5 4 3 21 -4 38 -17 17 -13 38 -26 46 -30 8 -3 36 -19 62 -34 26 -15 72 -41
103 -59 l55 -31 0 474 c0 415 -2 474 -15 474 -8 0 -15 5 -15 10 0 6 -5 10 -10
10 -6 0 -35 16 -65 35 -30 19 -55 31 -55 27 0 -4 -6 0 -13 8 -13 16 -67 45
-79 42 -5 -1 -8 2 -8 7 0 5 -21 20 -47 33 -27 13 -54 28 -61 35 -6 6 -22 15
-34 19 -12 3 -26 10 -32 15 -26 21 -86 58 -86 52 0 -3 -8 1 -18 9 -9 8 -32 21
-49 29 -18 8 -33 17 -33 20 0 3 -18 14 -40 24 -22 10 -40 23 -40 28 0 6 -3 7
-6 4 -4 -4 -19 2 -34 13 -16 11 -33 20 -39 20 -6 0 -11 5 -11 10 0 6 -4 10
-10 10 -5 0 -33 14 -62 32 -29 17 -69 40 -88 50 -19 11 -57 33 -85 48 -27 16
-65 36 -82 45 -18 8 -33 20 -33 26 0 5 -3 8 -8 5 -4 -2 -26 9 -50 25 -23 16
-49 29 -57 29 -8 0 -15 4 -15 8 0 5 -15 16 -32 25 -18 9 -60 33 -93 52 -33 19
-79 44 -102 56 -24 11 -43 24 -43 28 0 5 -11 12 -25 15 -14 4 -25 14 -26 24
-4 85 -3 140 4 154 7 17 10 16 45 -6 82 -52 212 -126 220 -126 5 0 15 -7 22
-15 7 -8 16 -12 21 -9 5 3 9 1 9 -5 0 -6 11 -13 25 -17 14 -3 25 -10 25 -15 0
-5 16 -15 36 -24 19 -8 48 -24 65 -35 16 -12 29 -18 29 -13 0 4 4 3 8 -3 4 -6
34 -26 67 -44 33 -19 62 -37 63 -42 2 -4 10 -8 17 -8 7 0 30 -11 52 -25 21
-14 40 -24 43 -23 3 2 12 -3 20 -10 25 -21 90 -62 99 -62 5 0 25 -11 45 -25
20 -13 36 -22 36 -19 0 3 7 -2 16 -10 8 -9 22 -16 29 -16 8 0 18 -6 22 -12 4
-7 38 -28 76 -47 37 -19 67 -38 67 -43 0 -4 7 -8 16 -8 8 0 22 -7 31 -15 8 -8
18 -13 23 -10 4 3 10 -2 14 -10 3 -8 12 -15 21 -15 8 0 15 -5 15 -12 0 -6 3
-8 7 -5 3 4 12 2 20 -4 7 -6 13 -9 13 -5 0 3 8 -1 18 -10 28 -25 94 -65 99
-60 3 2 16 -5 30 -17 13 -12 28 -22 31 -22 4 0 25 -11 47 -25 22 -14 43 -26
48 -28 4 -2 7 280 7 626 0 597 -1 630 -18 645 -10 10 -22 14 -25 10 -4 -3 -7
-1 -7 5 0 7 -7 12 -15 12 -8 0 -23 8 -33 18 -9 9 -36 26 -60 36 -23 10 -42 24
-42 29 0 6 -3 8 -6 4 -3 -3 -47 20 -97 50 -51 31 -97 56 -104 56 -7 0 -14 6
-17 14 -3 7 -12 13 -21 13 -8 0 -15 5 -15 11 0 5 -4 8 -9 5 -5 -3 -19 2 -32
12 -13 10 -55 36 -93 58 -38 21 -94 54 -125 72 -31 18 -70 39 -88 47 -17 8
-33 19 -35 24 -1 5 -12 11 -22 13 -11 1 -31 13 -44 25 -13 13 -28 20 -33 17
-5 -3 -9 0 -9 5 0 6 -5 11 -10 11 -6 0 -39 18 -75 39 -36 22 -73 42 -82 45
-10 3 -30 17 -44 30 -15 14 -30 22 -34 18 -4 -4 -12 0 -18 8 -7 8 -28 23 -47
32 -19 10 -57 31 -85 47 -27 16 -69 39 -92 51 -24 11 -43 25 -43 30 0 6 -3 9
-7 8 -5 -2 -33 13 -63 32 -30 19 -64 39 -75 46 -11 6 -36 20 -55 31 -19 11
-62 35 -95 53 -33 18 -68 40 -77 48 -10 8 -18 12 -18 9 0 -4 -28 11 -62 33
-33 22 -65 40 -69 40 -8 0 -73 41 -96 60 -7 6 -13 8 -13 5 0 -3 -25 10 -55 30
-30 19 -55 31 -55 27 0 -4 -4 -2 -8 4 -4 6 -35 26 -69 44 -34 18 -60 37 -57
42 3 4 -4 8 -15 8 l-21 0 0 -1200z"/>
<path d="M4938 4433 c-1 -5 -28 -21 -58 -37 -30 -16 -58 -34 -62 -40 -4 -6 -8
-7 -8 -3 0 4 -17 -4 -37 -18 -21 -14 -43 -25 -50 -25 -7 0 -13 -4 -13 -10 0
-5 -5 -10 -11 -10 -6 0 -31 -13 -56 -30 -24 -16 -48 -30 -52 -30 -5 0 -25 -11
-45 -25 -20 -13 -36 -21 -36 -17 0 4 -4 2 -8 -4 -4 -6 -19 -17 -33 -25 -86
-46 -115 -62 -119 -68 -3 -4 -20 -13 -37 -20 -18 -8 -33 -18 -33 -23 0 -5 -4
-7 -9 -3 -5 3 -12 1 -16 -5 -3 -5 -23 -17 -43 -27 -20 -9 -39 -20 -42 -23 -10
-12 -85 -55 -92 -52 -5 1 -8 -3 -8 -8 0 -6 -19 -20 -42 -31 -58 -27 -102 -52
-110 -64 -4 -5 -8 -7 -8 -3 0 4 -16 -4 -36 -17 -20 -14 -42 -25 -49 -25 -7 0
-16 -7 -19 -16 -3 -9 -12 -14 -18 -12 -7 3 -22 -4 -33 -15 -11 -10 -36 -27
-55 -36 -59 -30 -114 -62 -132 -79 -10 -8 -18 -12 -18 -9 0 4 -22 -7 -49 -23
-26 -17 -53 -30 -60 -30 -6 0 -11 -4 -11 -10 0 -5 -19 -19 -42 -31 -60 -29
-94 -49 -158 -89 -30 -19 -58 -34 -61 -35 -3 0 -27 -13 -54 -30 -26 -17 -51
-29 -56 -27 -5 1 -9 -2 -9 -8 0 -5 -7 -10 -15 -10 -7 0 -18 -7 -23 -16 -5 -9
-11 -15 -13 -14 -5 2 -62 -23 -69 -30 -10 -12 -105 -64 -112 -62 -5 1 -8 -3
-8 -9 0 -5 -4 -7 -10 -4 -5 3 -10 2 -10 -2 0 -5 -19 -19 -42 -31 -72 -38 -103
-57 -110 -67 -4 -5 -8 -6 -8 -1 0 5 -9 1 -20 -9 -20 -18 -20 -31 -20 -646 l0
-628 36 24 c19 13 44 27 55 30 10 4 19 11 19 16 0 5 6 9 14 9 7 0 29 11 49 24
19 13 38 22 41 18 3 -3 6 -1 6 4 0 5 26 23 57 39 32 17 62 34 68 38 27 21 125
75 125 69 0 -4 4 -2 8 3 10 14 128 85 141 85 6 0 11 5 11 12 0 6 3 8 6 5 4 -3
18 3 32 13 13 11 31 20 38 20 8 0 14 5 14 11 0 5 4 8 9 5 5 -4 11 -3 13 1 4 9
106 73 117 73 4 0 22 11 41 25 18 13 37 22 41 19 5 -3 9 -1 9 3 0 8 25 23 130
79 19 11 37 22 40 25 8 10 75 43 83 41 4 -1 7 2 7 8 0 5 15 16 34 24 18 8 37
19 40 25 4 6 12 9 17 6 5 -4 9 -2 9 4 0 5 10 13 22 17 12 3 47 23 77 42 31 20
59 35 64 34 4 -1 7 3 7 10 0 6 3 8 7 5 3 -4 20 4 37 16 64 49 66 47 66 -58 0
-72 -3 -95 -13 -95 -7 0 -23 -9 -35 -20 -12 -12 -22 -18 -22 -15 0 3 -18 -6
-40 -20 -22 -14 -44 -25 -50 -25 -5 0 -10 -4 -10 -10 0 -5 -6 -10 -13 -10 -7
0 -29 -11 -50 -25 -20 -14 -37 -23 -37 -20 0 4 -7 0 -15 -7 -33 -30 -45 -38
-45 -32 0 3 -6 1 -13 -5 -8 -6 -17 -8 -20 -4 -4 3 -7 1 -7 -6 0 -7 -16 -19
-36 -27 -21 -9 -43 -22 -51 -30 -8 -8 -25 -17 -39 -20 -13 -3 -24 -10 -24 -15
0 -4 -19 -17 -42 -28 -67 -33 -132 -71 -139 -82 -3 -6 -9 -11 -12 -10 -17 1
-77 -31 -77 -41 0 -6 -3 -9 -6 -5 -4 3 -26 -7 -49 -23 -23 -16 -45 -26 -49
-23 -3 4 -6 1 -6 -5 0 -7 -4 -12 -9 -12 -5 0 -30 -12 -56 -27 -25 -16 -68 -40
-93 -55 -26 -15 -62 -35 -79 -43 -18 -8 -33 -19 -33 -24 0 -4 -18 -14 -39 -21
-22 -7 -42 -19 -45 -27 -3 -8 -10 -11 -16 -8 -5 3 -10 1 -10 -4 0 -6 -7 -11
-15 -11 -8 0 -24 -9 -36 -21 -11 -11 -23 -18 -26 -16 -4 5 -62 -29 -90 -53 -7
-6 -13 -8 -13 -6 0 3 -15 -5 -34 -17 -18 -12 -48 -30 -65 -39 l-31 -17 0 -476
0 -476 30 21 c17 12 30 18 30 15 0 -4 19 7 42 24 22 17 45 28 50 25 4 -3 8 0
8 5 0 6 7 11 15 11 9 0 18 7 21 15 4 8 9 13 13 11 4 -3 20 4 37 15 30 20 243
143 292 168 15 8 30 18 33 23 6 9 44 6 55 -5 4 -4 13 -2 21 4 10 9 13 8 13 -3
0 -8 7 -15 15 -15 8 0 15 4 15 9 0 5 7 3 15 -6 8 -8 24 -13 35 -11 11 2 20 0
20 -5 0 -5 9 -9 20 -9 11 -1 29 -1 40 -2 11 0 18 -4 15 -9 -6 -10 15 -8 34 4
10 6 12 5 7 -2 -7 -11 7 -16 42 -15 6 1 12 -3 12 -7 0 -5 11 -7 25 -5 14 1 28
-2 32 -8 4 -6 1 -7 -7 -2 -9 5 -11 4 -6 -4 4 -6 13 -8 19 -4 18 11 38 12 31 2
-3 -5 6 -9 20 -9 14 0 26 -5 26 -11 0 -8 5 -8 15 1 10 9 15 9 15 1 0 -6 14
-11 30 -11 17 0 30 -5 30 -12 0 -6 3 -8 7 -5 3 4 13 1 21 -6 13 -10 15 -9 9 7
-7 17 -6 17 9 5 10 -8 29 -14 43 -15 16 0 25 -6 23 -14 -2 -11 0 -11 11 -1 12
9 18 8 30 -4 10 -10 18 -12 22 -5 5 8 11 8 19 1 7 -6 16 -8 19 -4 4 3 7 -2 7
-13 0 -16 2 -17 10 -4 6 9 13 11 18 5 4 -5 16 -11 27 -12 11 -2 30 -4 43 -5
12 -1 22 -6 22 -11 0 -5 8 -3 17 4 11 10 14 10 9 2 -6 -12 18 -19 47 -14 4 0
7 -4 7 -11 0 -6 2 -9 6 -6 3 3 21 2 40 -2 20 -5 34 -4 34 2 0 5 4 7 9 4 5 -3
12 1 15 9 7 20 -23 32 -35 14 -6 -10 -9 -7 -9 11 0 20 -2 22 -11 10 -8 -12
-12 -12 -16 -2 -4 10 -8 10 -19 1 -11 -9 -14 -9 -14 1 0 7 -8 10 -19 7 -12 -3
-22 1 -26 11 -5 14 -7 14 -15 2 -7 -10 -10 -11 -10 -2 0 6 -11 12 -24 12 -14
0 -28 5 -31 10 -4 7 -13 7 -26 0 -10 -6 -19 -7 -18 -3 3 19 -2 27 -10 15 -6
-11 -11 -10 -25 3 -9 9 -16 12 -16 6 0 -6 -5 -11 -11 -11 -5 0 -8 4 -4 9 3 6
-3 10 -12 11 -42 1 -63 5 -63 10 0 5 -21 9 -63 10 -10 1 -15 6 -11 13 5 8 3 8
-7 -1 -7 -6 -18 -12 -23 -12 -6 0 -4 5 4 11 12 9 11 10 -7 6 -13 -3 -23 -1
-23 4 0 4 -7 6 -15 3 -8 -4 -15 -1 -15 6 0 9 -3 10 -14 1 -11 -9 -15 -8 -20 6
-6 15 -8 15 -16 3 -7 -12 -10 -11 -16 4 -5 14 -9 15 -15 4 -5 -7 -9 -8 -9 -3
0 6 -11 12 -26 13 -14 1 -34 7 -46 13 -16 9 -19 8 -12 -3 6 -11 5 -11 -9 1 -9
7 -17 10 -17 6 0 -5 -10 0 -22 11 -12 10 -18 13 -14 7 4 -7 2 -13 -3 -13 -6 0
-11 4 -11 9 0 6 -9 8 -20 6 -11 -2 -20 0 -20 5 0 4 -9 6 -20 3 -11 -3 -20 -1
-20 5 0 5 -15 9 -34 8 -19 -1 -34 1 -34 4 1 18 -4 21 -17 10 -11 -9 -15 -9
-15 -1 0 7 -4 10 -9 6 -5 -3 -13 0 -16 6 -4 6 2 13 14 16 12 3 21 10 21 15 0
5 5 6 10 3 6 -3 10 -1 10 4 0 6 6 11 14 11 7 0 19 7 26 15 7 8 16 13 20 10 5
-3 10 0 12 7 2 6 21 12 41 12 20 1 37 3 37 6 0 3 27 4 60 2 41 -3 66 1 77 10
12 9 15 9 9 1 -7 -13 7 -18 29 -13 6 1 32 2 58 1 28 -1 56 4 65 11 9 7 13 8 9
2 -4 -7 0 -14 8 -18 8 -3 15 -2 15 3 0 5 16 7 35 4 24 -3 35 -1 35 8 0 7 6 4
15 -7 8 -10 15 -14 15 -9 0 12 40 13 58 1 7 -4 12 -4 12 1 0 12 174 10 182 -2
5 -7 8 -7 8 0 0 6 48 10 125 10 130 0 170 11 125 35 -18 10 -21 10 -15 -2 3
-7 -1 -4 -9 6 -9 11 -16 15 -16 9 0 -7 -25 -10 -70 -9 -39 1 -72 -3 -74 -9 -3
-5 -5 -1 -6 10 -1 18 -1 19 -11 2 -7 -13 -15 -15 -28 -8 -10 6 -23 6 -31 1
-10 -6 -21 -3 -34 8 -11 9 -16 11 -12 5 5 -9 0 -13 -13 -13 -12 0 -21 6 -21
13 0 8 -2 9 -8 1 -4 -7 -26 -11 -49 -10 -25 1 -43 -2 -43 -8 0 -7 -3 -8 -8 -1
-4 6 -23 10 -42 9 -19 0 -41 4 -49 10 -11 8 -13 8 -7 -2 5 -9 -1 -12 -26 -10
-18 1 -38 5 -45 10 -6 5 -14 5 -17 0 -3 -6 -22 -8 -41 -6 -22 2 -35 -1 -35 -9
0 -8 -3 -8 -8 -2 -9 13 -42 13 -61 1 -10 -7 -12 -6 -6 4 6 10 2 11 -19 6 -20
-5 -26 -4 -20 5 5 8 3 9 -7 4 -14 -9 -79 -18 -79 -11 0 2 17 13 38 24 92 49
107 58 114 67 5 7 8 7 8 0 0 -6 3 -5 8 1 4 6 27 22 50 35 89 49 102 57 117 69
8 7 15 9 15 4 0 -5 4 -4 8 1 10 15 83 56 106 61 11 2 22 7 25 11 7 10 29 16
59 16 12 1 22 4 22 7 0 4 6 7 13 7 12 1 36 6 87 18 14 3 30 7 37 9 7 1 16 5
19 9 12 12 26 8 18 -5 -4 -7 1 -6 12 3 10 9 25 14 33 11 8 -2 11 0 8 5 -3 5 7
8 24 7 16 -1 29 2 29 7 0 6 6 9 13 8 34 -6 107 30 107 53 0 4 -12 8 -26 8 -14
0 -23 -4 -20 -8 3 -5 -5 -8 -17 -7 -12 1 -36 -3 -53 -10 -24 -10 -35 -10 -44
-2 -10 9 -11 9 -6 0 5 -9 -1 -13 -18 -13 -14 0 -26 -4 -26 -9 0 -5 -6 -9 -12
-8 -34 1 -59 -4 -54 -11 5 -9 -41 -8 -50 1 -4 3 6 12 22 19 16 7 32 17 36 23
4 5 8 7 8 3 0 -4 16 4 36 17 20 14 43 25 50 25 8 0 14 4 14 9 0 5 15 14 33 22
17 7 36 19 40 26 5 7 12 11 18 8 5 -4 9 -1 9 4 0 6 7 11 15 11 8 0 24 9 35 20
11 11 20 17 20 14 0 -5 54 23 80 42 8 6 35 22 60 35 25 13 47 26 50 29 3 3 31
19 62 35 32 17 58 33 58 38 0 4 6 7 14 7 8 0 22 7 30 16 9 8 16 12 16 8 0 -4
8 0 18 9 10 9 33 24 52 32 19 9 45 22 58 28 l22 12 0 717 c0 711 0 718 -20
718 -11 0 -20 -4 -20 -10 0 -5 -6 -10 -14 -10 -8 0 -21 -6 -28 -12 -7 -7 -26
-20 -43 -28 -16 -8 -32 -18 -35 -21 -8 -10 -94 -53 -102 -51 -5 1 -8 -3 -8 -8
0 -6 -19 -20 -42 -31 -51 -24 -85 -43 -156 -86 -28 -18 -55 -33 -58 -32 -4 0
-10 -3 -13 -8 -6 -8 -31 -23 -118 -69 -29 -16 -53 -32 -53 -37 0 -4 -4 -6 -8
-3 -5 3 -27 -8 -49 -24 -22 -16 -43 -27 -46 -23 -4 3 -9 -1 -13 -10 -3 -9 -19
-19 -35 -22 -16 -4 -29 -11 -29 -16 0 -6 -4 -7 -10 -4 -5 3 -10 1 -10 -5 0 -6
-19 -20 -42 -31 -24 -11 -64 -32 -90 -47 -25 -15 -79 -46 -120 -69 -40 -23
-82 -49 -93 -57 -10 -9 -23 -16 -27 -16 -9 0 -9 4 -10 75 0 111 0 114 27 121
14 3 25 10 25 15 0 5 7 9 15 9 8 0 15 5 15 11 0 6 6 9 12 7 7 -3 18 0 25 6 36
32 48 41 53 39 3 -1 19 6 35 16 17 9 34 18 39 18 5 1 12 5 15 11 6 8 88 58
141 84 14 7 28 16 31 21 3 5 9 8 13 8 3 -1 31 14 61 34 31 19 59 35 64 35 5 0
16 6 23 13 7 7 31 22 53 33 62 30 140 77 143 86 2 5 8 6 13 2 5 -3 9 0 9 5 0
6 3 10 8 9 4 -1 25 9 47 23 22 13 52 31 68 38 15 8 27 18 27 23 0 5 4 7 9 4 5
-3 19 3 32 13 14 10 40 26 59 35 19 9 52 26 72 39 99 59 132 77 144 77 12 0
14 65 14 385 0 373 -1 385 -19 385 -11 0 -21 -3 -23 -7z"/>
</g>
</svg>
